<?xml version="1.0" encoding="UTF-8"?>
<!DOCTYPE svg PUBLIC "-//W3C//DTD SVG 1.1//EN" "http://www.w3.org/Graphics/SVG/1.1/DTD/svg11.dtd">
<!-- Creator: CorelDRAW -->
<svg xmlns="http://www.w3.org/2000/svg" xml:space="preserve" width="1080px" height="350px" version="1.1" style="shape-rendering:geometricPrecision; text-rendering:geometricPrecision; image-rendering:optimizeQuality; fill-rule:evenodd; clip-rule:evenodd"
viewBox="0 0 1080 350"
 xmlns:xlink="http://www.w3.org/1999/xlink"
 xmlns:xodm="http://www.corel.com/coreldraw/odm/2003">
 <defs>
  <style type="text/css">
   <![CDATA[
    .fil2 {fill:#696B6D;fill-rule:nonzero}
    .fil0 {fill:#BF3033;fill-rule:nonzero}
    .fil1 {fill:#165C94;fill-rule:nonzero}
   ]]>
  </style>
 </defs>
 <g id="Layer_x0020_1">
  <metadata id="CorelCorpID_0Corel-Layer"/>
  <g id="_2580055549888">
   <polygon class="fil0" points="225.31,207.16 188.44,207.16 188.44,128.23 225.31,128.23 "/>
   <polygon class="fil0" points="225.31,107.77 135.16,107.77 135.16,50.3 150.8,59.1 150.42,89.63 170.4,89.63 170.4,59.13 185.59,59.13 185.59,89.63 210.12,89.63 210.12,59.13 225.31,48.88 "/>
   <path class="fil1" d="M78.36 89.53l0 87.2c0,2.91 -0.06,5.84 -0.12,8.78 -0.28,14.35 -0.59,29.19 5.22,43.91 4.17,10.57 8.55,20.9 16.38,31.03 17.12,22.18 43.08,36.6 73.06,40.57l1.51 0.01 0 -16.92 0 -155.88 -36.87 0 0 136.11c-7.51,-4.9 -14.11,-10.91 -19.53,-17.93 -5.99,-7.75 -9.52,-16.09 -13.19,-25.41 -4.11,-10.44 -3.88,-22.38 -3.62,-35.03 0.07,-3.09 0.13,-6.17 0.13,-9.24l0 -68.97 25.53 0 0 -18.23 -48.5 0z"/>
   <path class="fil1" d="M286.86 185.52c-0.06,-2.94 -0.12,-5.88 -0.12,-8.79l0 -87.2 -52.96 0 0 18.23 30 0 0 68.97c0,3.07 0.06,6.15 0.12,9.25 0.25,12.64 0.49,24.58 -3.62,35.02 -3.67,9.32 -7.19,17.65 -13.19,25.41 -13.27,17.19 -33.55,28.44 -57.18,31.74l-1.47 0 0 22.96 3.01 0.01 0.75 -0.1c29.98,-3.97 55.93,-18.39 73.07,-40.57 7.82,-10.14 12.21,-20.46 16.37,-31.03 5.81,-14.72 5.51,-29.56 5.22,-43.9z"/>
   <path class="fil1" d="M346.15 186.44l0 -99.34 43.01 0c8.93,0 16.6,1.42 22.98,4.26 6.39,2.98 11.35,7.09 14.9,12.49 3.55,5.39 5.25,11.78 5.25,19.3 0,7.38 -1.7,13.76 -5.25,19.15 -3.55,5.39 -8.51,9.51 -14.9,12.35 -6.38,2.98 -14.05,4.4 -22.98,4.4l-30.24 0 10.22 -10.36 0 37.75 -22.99 0zm22.99 -35.2l-10.22 -10.92 28.96 0c7.09,0 12.34,-1.56 15.89,-4.54 3.55,-2.98 5.25,-7.24 5.25,-12.63 0,-5.54 -1.7,-9.79 -5.25,-12.78 -3.55,-2.98 -8.8,-4.54 -15.89,-4.54l-28.96 0 10.22 -10.93 0 56.34z"/>
   <path class="fil1" d="M448.61 186.44l0 -99.34 42.43 0c13.77,0 24.55,3.12 32.22,9.51 7.66,6.38 11.49,15.33 11.49,26.54 0,7.38 -1.7,13.76 -5.25,19.01 -3.55,5.39 -8.51,9.51 -14.9,12.35 -6.39,2.83 -14.05,4.25 -22.99,4.25l-30.23 0 10.22 -10.07 0 37.75 -22.99 0zm63.15 0l-24.83 -36.05 24.55 0 25.12 36.05 -24.84 0zm-40.16 -35.2l-10.22 -10.78 28.95 0c7.1,0 12.35,-1.56 15.89,-4.68 3.55,-2.98 5.26,-7.24 5.26,-12.63 0,-5.54 -1.71,-9.79 -5.26,-12.78 -3.54,-2.98 -8.79,-4.54 -15.89,-4.54l-28.95 0 10.22 -10.93 0 56.34zm189.59 35.2l0 -99.34 22.99 0 0 99.34 -22.99 0zm-68.11 0l0 -99.34 22.98 0 0 99.34 -22.98 0zm21.28 -40.73l0 -19.44 48.54 0 0 19.44 -48.54 0z"/>
   <polygon class="fil1" points="735.39,186.44 692.54,87.1 717.37,87.1 754.83,175.09 740.22,175.09 778.25,87.1 801.1,87.1 758.1,186.44 "/>
   <path class="fil1" d="M793 186.44l44.28 -99.34 22.7 0 44.42 99.34 -24.12 0 -36.33 -87.7 9.08 0 -36.47 87.7 -23.56 0zm22.14 -21.29l6.1 -17.46 51.09 0 6.24 17.46 -63.43 0z"/>
   <path class="fil1" d="M960.87 188.14c-7.66,0 -14.76,-1.28 -21.28,-3.83 -6.67,-2.41 -12.35,-5.96 -17.18,-10.64 -4.82,-4.69 -8.51,-10.08 -11.21,-16.33 -2.7,-6.24 -4.11,-13.05 -4.11,-20.57 0,-7.52 1.41,-14.33 4.11,-20.58 2.7,-6.24 6.39,-11.63 11.36,-16.32 4.82,-4.68 10.5,-8.23 17.03,-10.78 6.52,-2.42 13.62,-3.69 21.42,-3.69 8.66,0 16.46,1.42 23.42,4.39 6.95,2.99 12.77,7.39 17.45,13.2l-14.76 13.63c-3.4,-3.83 -7.23,-6.81 -11.35,-8.8 -4.12,-1.84 -8.66,-2.84 -13.62,-2.84 -4.68,0 -8.94,0.71 -12.77,2.27 -3.83,1.56 -7.24,3.69 -10.08,6.53 -2.84,2.84 -4.96,6.25 -6.53,10.08 -1.56,3.83 -2.41,8.23 -2.41,12.91 0,4.68 0.85,9.08 2.41,12.91 1.57,3.83 3.69,7.24 6.53,10.08 2.84,2.84 6.25,4.96 10.08,6.53 3.83,1.56 8.09,2.27 12.77,2.27 4.96,0 9.5,-1 13.62,-2.98 4.12,-1.85 7.95,-4.83 11.35,-8.8l14.76 13.62c-4.68,5.82 -10.5,10.22 -17.45,13.2 -6.96,2.98 -14.9,4.54 -23.56,4.54z"/>
   <path class="fil2" d="M388.02 241.48c0,7.32 -2.76,12.84 -8.18,16.36 -5.51,3.51 -12.27,5.32 -20.25,5.32 -1.43,0 -2.47,-0.09 -3.14,-0.09 0,5.8 0.19,13.5 0.57,23.01l-13.13 0c0.48,-8.94 0.67,-19.49 0.67,-31.67 0,-11.13 -0.19,-20.73 -0.67,-28.82l8.09 0c1.14,0 3.42,0 6.66,-0.09 3.23,-0.1 5.99,-0.19 8.46,-0.19 5.8,0 10.84,1.33 14.84,3.99 4.09,2.67 6.08,6.75 6.08,12.18zm-11.98 2.57c0,-6.66 -4.38,-9.99 -13.13,-9.99 -2.18,0 -4.56,0.19 -7.03,0.66 0.38,5.9 0.57,12.56 0.57,19.88 0.76,0.09 1.61,0.09 2.66,0.09 11.32,0 16.93,-3.51 16.93,-10.64z"/>
   <path class="fil2" d="M428.57 241.95l-2.76 10.85c-2.28,-0.86 -4.56,-1.34 -6.94,-1.34 -4.57,0 -7.51,2 -9.03,6.09 0,12.36 0.09,21.87 0.28,28.53l-12.36 0c0.57,-9.32 0.85,-16.93 0.85,-22.82 0,-7.42 -0.85,-14.36 -2.37,-21.02l11.88 -1.24c0.48,3.42 0.77,5.42 0.77,5.99l0.75 0c2.86,-4.37 6.67,-6.56 11.32,-6.56 2.28,0 4.76,0.48 7.61,1.52z"/>
   <path class="fil2" d="M450.35 286.08l-12.46 0c0.38,-6.37 0.57,-13.79 0.57,-22.06 0,-8.28 -0.47,-15.41 -1.52,-21.69l13.32 -1.33c-0.39,5.99 -0.58,13.69 -0.58,23.02 0,7.99 0.19,15.31 0.67,22.06zm2.09 -58.11c0,2.09 -0.66,3.9 -2.09,5.52 -1.43,1.52 -3.52,2.37 -6.09,2.37 -2.09,0 -3.8,-0.75 -5.04,-2.09 -1.23,-1.33 -1.81,-2.95 -1.81,-4.94 0,-2.09 0.67,-3.9 2.1,-5.43 1.52,-1.61 3.52,-2.37 6.09,-2.37 2.18,0 3.89,0.66 5.13,2.09 1.14,1.33 1.71,2.95 1.71,4.85z"/>
   <path class="fil2" d="M503.67 241.95c0,1.81 -2.76,9.13 -8.37,22.07 -5.51,12.93 -8.27,20.26 -8.27,22.06l-12.65 0c0,-1.99 -2.47,-9.51 -7.42,-22.63 -4.95,-13.03 -7.42,-20.26 -7.42,-21.5l13.6 0c0,1.43 1.52,6.75 4.57,16.17 3.04,9.32 4.56,14.84 4.56,16.45l0.57 0c0,-1.42 1.53,-6.65 4.38,-15.59 2.95,-8.94 4.37,-14.56 4.37,-17.03l12.08 0z"/>
   <path class="fil2" d="M550.46 285.99l-10.93 0.47c-0.58,-1.33 -0.77,-2.56 -0.77,-3.61l-0.66 0c-3.33,2.95 -7.99,4.37 -13.79,4.37 -3.81,0 -7.04,-1.04 -9.61,-3.23 -2.56,-2.09 -3.8,-4.94 -3.8,-8.56 0,-4.66 1.99,-8.56 5.89,-11.51 4,-3.04 11.04,-4.66 20.93,-4.85 0.09,-0.57 0.09,-1.04 0.09,-1.52 0,-3.42 -0.76,-5.61 -2.38,-6.66 -1.61,-1.05 -4.56,-1.61 -8.84,-1.61 -4.66,0 -9.22,0.66 -13.7,1.9l0.96 -8.56c4.28,-1.43 10.17,-2.19 17.88,-2.19 5.61,0 9.89,1.14 12.93,3.52 3.14,2.38 4.66,6.47 4.66,12.36 0,1.34 -0.09,3.62 -0.19,7.14 -0.09,3.42 -0.19,5.7 -0.19,6.85 0,6.37 0.48,11.6 1.52,15.69zm-12.46 -9.61c-0.19,-4.18 -0.28,-7.8 -0.28,-10.84 -10.56,0 -15.79,2.66 -15.79,8.08 0,3.62 2.28,5.52 6.94,5.52 3.71,0 6.76,-0.95 9.13,-2.76z"/>
   <path class="fil2" d="M589.54 277.43l-0.76 8.27c-2.19,0.86 -4.95,1.33 -8.18,1.33 -5.04,0 -8.85,-1.33 -11.42,-4.08 -2.47,-2.67 -3.8,-8 -3.8,-15.7 0,-4.66 0.1,-9.99 0.1,-15.88 -1.53,0 -3.71,0.09 -6.38,0.28l0.29 -9.22c2.38,0.19 4.66,0.28 6.66,0.28 0.09,-1.62 0.19,-5.89 0.38,-12.93l11.03 -1.34c-0.48,6.19 -0.67,10.95 -0.67,14.27 2.57,0 6.47,-0.09 11.61,-0.38l-0.38 9.32c-4.66,-0.19 -8.47,-0.28 -11.42,-0.28 -0.09,4.09 -0.09,8.37 -0.09,12.93 0,5.52 0.47,9.23 1.61,11.04 1.14,1.9 3.15,2.85 5.9,2.85 1.71,0 3.52,-0.29 5.52,-0.76z"/>
   <path class="fil2" d="M639.52 259.26c0,1.62 -0.1,3.62 -0.29,6.19l-29.96 0.47c0.48,3.52 2,6.47 4.57,8.75 2.57,2.38 5.9,3.52 10.08,3.52 4.66,0 9.61,-0.67 14.84,-2.1l-0.95 9.04c-4.28,1.53 -9.61,2.28 -15.89,2.28 -7.99,0 -14.07,-2.28 -18.35,-6.75 -4.28,-4.47 -6.37,-9.89 -6.37,-16.17 0,-6.56 1.99,-12.36 5.99,-17.21 4.09,-4.85 9.7,-7.23 16.93,-7.23 6.56,0 11.41,1.81 14.55,5.33 3.23,3.61 4.85,8.17 4.85,13.88zm-10.94 -0.38c0,-7.13 -3.04,-10.75 -9.03,-10.75 -5.81,0 -9.23,3.71 -10.37,11.13l19.4 -0.38z"/>
   <path class="fil2" d="M711.58 275.9l-0.38 10.18 -38.61 0c0.38,-8.37 0.57,-18.92 0.57,-31.67 0,-11.6 -0.19,-21.21 -0.57,-28.82l13.12 0c-0.38,7.04 -0.57,16.65 -0.57,28.82 0,9.32 -0.19,16.74 -0.66,22.26 8.56,0 17.59,-0.29 27.1,-0.77z"/>
   <path class="fil2" d="M733.08 286.08l-12.46 0c0.38,-6.37 0.57,-13.79 0.57,-22.06 0,-8.28 -0.48,-15.41 -1.52,-21.69l13.31 -1.33c-0.38,5.99 -0.57,13.69 -0.57,23.02 0,7.99 0.19,15.31 0.67,22.06zm2.09 -58.11c0,2.09 -0.67,3.9 -2.09,5.52 -1.43,1.52 -3.52,2.37 -6.09,2.37 -2.09,0 -3.81,-0.75 -5.04,-2.09 -1.24,-1.33 -1.81,-2.95 -1.81,-4.94 0,-2.09 0.67,-3.9 2.09,-5.43 1.53,-1.61 3.52,-2.37 6.09,-2.37 2.19,0 3.9,0.66 5.14,2.09 1.14,1.33 1.71,2.95 1.71,4.85z"/>
   <path class="fil2" d="M815.02 286.08l-12.26 0c0.57,-7.8 0.95,-15.5 0.95,-22.82 0,-5.61 -0.76,-9.23 -2.19,-10.94 -1.43,-1.62 -3.71,-2.48 -6.75,-2.48 -2.57,0 -5.23,0.86 -7.99,2.67 -0.09,3.9 -0.19,7.42 -0.19,10.46 0,5.14 0.1,12.84 0.28,23.11l-12.45 0c0.66,-8.46 1.04,-16.74 1.04,-24.73 0,-4.18 -0.57,-7.13 -1.71,-8.94 -1.24,-1.71 -3.61,-2.57 -7.23,-2.57 -3.42,0 -6.18,1.05 -8.46,3.33 0.19,12.28 0.28,23.21 0.28,32.91l-12.55 0c0.57,-9.7 0.85,-17.31 0.85,-22.82 0,-7.23 -0.76,-14.27 -2.28,-21.02l11.89 -1.24 0.85 4.95 0.67 0c4.09,-3.71 8.56,-5.52 13.6,-5.52 6.37,0 10.84,1.81 13.41,5.52l0.67 0c4.66,-3.71 9.13,-5.52 13.6,-5.52 5.32,0 9.32,1.14 11.98,3.42 2.66,2.29 3.99,6.38 3.99,12.37 0,0.57 0,1.71 -0.09,3.33 -0.1,1.71 -0.1,2.85 -0.1,3.42 0,5.14 0.1,12.84 0.19,23.11z"/>
   <path class="fil2" d="M841.15 286.08l-12.46 0c0.38,-6.37 0.57,-13.79 0.57,-22.06 0,-8.28 -0.47,-15.41 -1.52,-21.69l13.32 -1.33c-0.39,5.99 -0.58,13.69 -0.58,23.02 0,7.99 0.19,15.31 0.67,22.06zm2.09 -58.11c0,2.09 -0.66,3.9 -2.09,5.52 -1.43,1.52 -3.52,2.37 -6.09,2.37 -2.09,0 -3.8,-0.75 -5.04,-2.09 -1.23,-1.33 -1.81,-2.95 -1.81,-4.94 0,-2.09 0.67,-3.9 2.1,-5.43 1.52,-1.61 3.52,-2.37 6.09,-2.37 2.18,0 3.89,0.66 5.13,2.09 1.14,1.33 1.71,2.95 1.71,4.85z"/>
   <path class="fil2" d="M881.82 277.43l-0.76 8.27c-2.19,0.86 -4.95,1.33 -8.18,1.33 -5.04,0 -8.85,-1.33 -11.42,-4.08 -2.47,-2.67 -3.8,-8 -3.8,-15.7 0,-4.66 0.09,-9.99 0.09,-15.88 -1.52,0 -3.7,0.09 -6.37,0.28l0.29 -9.22c2.38,0.19 4.66,0.28 6.66,0.28 0.09,-1.62 0.19,-5.89 0.38,-12.93l11.03 -1.34c-0.48,6.19 -0.67,10.95 -0.67,14.27 2.57,0 6.47,-0.09 11.61,-0.38l-0.38 9.32c-4.66,-0.19 -8.47,-0.28 -11.42,-0.28 -0.09,4.09 -0.09,8.37 -0.09,12.93 0,5.52 0.47,9.23 1.61,11.04 1.14,1.9 3.15,2.85 5.9,2.85 1.71,0 3.52,-0.29 5.52,-0.76z"/>
   <path class="fil2" d="M931.79 259.26c0,1.62 -0.09,3.62 -0.28,6.19l-29.96 0.47c0.48,3.52 2,6.47 4.57,8.75 2.56,2.38 5.89,3.52 10.08,3.52 4.66,0 9.6,-0.67 14.83,-2.1l-0.95 9.04c-4.28,1.53 -9.6,2.28 -15.88,2.28 -7.99,0 -14.07,-2.28 -18.36,-6.75 -4.27,-4.47 -6.37,-9.89 -6.37,-16.17 0,-6.56 2,-12.36 5.99,-17.21 4.09,-4.85 9.71,-7.23 16.93,-7.23 6.57,0 11.42,1.81 14.55,5.33 3.24,3.61 4.85,8.17 4.85,13.88zm-10.93 -0.38c0,-7.13 -3.04,-10.75 -9.04,-10.75 -5.8,0 -9.22,3.71 -10.36,11.13l19.4 -0.38z"/>
   <path class="fil2" d="M985.32 285.99l-11.03 0.47c-0.19,-1.14 -0.38,-2.28 -0.38,-3.42l-0.67 0c-3.42,2.95 -7.7,4.37 -13.03,4.37 -5.99,0 -10.65,-2.18 -14.17,-6.46 -3.51,-4.28 -5.23,-9.42 -5.23,-15.31 0,-6.76 1.9,-12.65 5.71,-17.7 3.8,-5.04 9.13,-7.6 15.88,-7.6 4.37,0 7.71,0.85 9.89,2.47l0.67 0c0,-7.32 -0.38,-14.65 -1.14,-22.07l13.22 -0.38c-0.57,7.23 -0.77,17.6 -0.77,31.2 0,13.7 0.29,25.2 1.05,34.43zm-11.7 -10.46c0,-9.89 -0.19,-18.08 -0.66,-24.54 -2.19,-1.52 -4.76,-2.29 -7.71,-2.29 -4.08,0 -7.13,1.53 -9.13,4.57 -1.9,3.04 -2.95,6.75 -2.95,11.13 0,3.9 0.96,7.32 2.86,10.17 1.99,2.76 4.66,4.19 7.99,4.19 4.56,0 7.8,-1.05 9.6,-3.23z"/>
  </g>
 </g>
</svg>
